<svg data-v-fde0c5aa="" xmlns="http://www.w3.org/2000/svg" viewBox="0 0 300 300" class="font"><!----><defs data-v-fde0c5aa=""><!----></defs><rect data-v-fde0c5aa="" fill="#400B2C" x="0" y="0" width="300px" height="300px" class="logo-background-square"></rect><defs data-v-fde0c5aa=""><!----></defs><g data-v-fde0c5aa="" id="f228be47-ac35-40bb-981e-7ed71efd028a" fill="#E8E8EE" transform="matrix(6.092485396472758,0,0,6.092485396472758,39.51260113378384,91.90550465427184)"><path d="M4.30 3.55L3.42 3.81L0.08 12.51L0.77 12.74L1.87 9.88L5.47 9.88L6.64 12.78L7.93 12.11L4.30 3.55ZM3.60 5.33L4.89 8.59L2.39 8.59L3.60 5.33ZM9.86 3.60L8.54 4.16L8.54 12.74L9.86 12.14L9.86 3.60ZM15.54 6.90L16.60 6.49L16.60 14.70L15.28 15.11L15.29 11.88Q14.01 13.06 12.70 12.50Q11.39 11.95 10.98 10.61Q10.57 9.27 11.43 8.02Q12.30 6.77 13.36 6.48Q14.42 6.19 15.54 6.90L15.54 6.90ZM13.62 7.29Q12.92 7.19 12.30 7.91Q11.68 8.63 11.99 9.80Q12.30 10.97 13.30 11.50Q14.30 12.02 15.28 11.41L15.28 11.41L15.27 7.81L14.89 8.21Q14.31 7.38 13.62 7.29ZM21.26 12.70L22.52 12.19L22.52 6.49L21.20 7.03L21.20 11.16Q20.69 11.79 19.83 11.74Q18.97 11.69 18.89 10.73L18.89 10.73L18.89 6.51L17.60 7.17L17.60 10.96Q17.60 11.91 18.26 12.35Q18.92 12.80 19.55 12.68Q20.17 12.56 21.26 11.48L21.26 11.48L21.26 12.70ZM25.23 3.55L23.97 4.14L23.97 5.58L25.23 5.06L25.23 3.55ZM25.24 6.54L23.93 7.02L23.93 12.67L25.24 12.21L25.24 6.54ZM27.15 5.29L27.15 5.29L27.16 7.05L26.04 8.11L27.28 8.11L27.29 12.76L28.53 12.23L28.53 8.09L29.26 8.09L31.08 6.99L28.50 6.99L28.50 5.22Q28.45 4.33 28.89 4.42Q29.32 4.51 29.52 5.26L29.52 5.26L30.59 4.40Q30.76 3.68 29.46 3.58Q28.16 3.47 27.15 5.29ZM36.19 12.19L36.19 12.19L36.19 6.49L34.86 7.03L34.86 11.16Q34.36 11.79 33.39 11.74Q32.43 11.69 32.35 10.73L32.35 10.73L32.35 6.51L31.06 7.17L31.06 10.96Q31.06 11.91 31.72 12.35Q32.38 12.80 33.11 12.68Q33.84 12.56 34.92 11.48L34.92 11.48L34.92 13.11Q34.97 14.06 34.62 14.39Q34.28 14.72 33.47 14.63Q32.66 14.53 31.83 13.36L31.83 13.36L30.98 14.57Q32.87 16.19 34.54 15.05Q36.20 13.90 36.19 12.19Z"></path></g><!----><!----></svg>